<svg width="22" height="24" viewBox="0 0 22 24" fill="none" xmlns="http://www.w3.org/2000/svg">
<path d="M8.99403 21.9001C9.18713 22.2345 9.46485 22.5122 9.79928 22.7053C10.1337 22.8984 10.5131 23 10.8992 23C11.2854 23 11.6648 22.8984 11.9992 22.7053C12.3336 22.5122 12.6113 22.2345 12.8044 21.9001M1.2874 15.6587C1.1437 15.8162 1.04887 16.012 1.01444 16.2224C0.980009 16.4328 1.00747 16.6487 1.09347 16.8438C1.17948 17.0389 1.32033 17.2048 1.49888 17.3213C1.67743 17.4378 1.886 17.4999 2.0992 17.5001H19.6993C19.9125 17.5001 20.1211 17.4383 20.2997 17.322C20.4784 17.2057 20.6194 17.04 20.7057 16.845C20.7919 16.6501 20.8196 16.4343 20.7855 16.2238C20.7513 16.0134 20.6568 15.8174 20.5133 15.6598C19.0503 14.1517 17.4993 12.549 17.4993 7.60003C17.4993 5.84959 16.8039 4.17085 15.5662 2.9331C14.3284 1.69536 12.6497 1 10.8992 1C9.1488 1 7.47006 1.69536 6.23231 2.9331C4.99457 4.17085 4.29921 5.84959 4.29921 7.60003C4.29921 12.549 2.7471 14.1517 1.2874 15.6587Z" stroke="#FAFAFA" stroke-width="2" stroke-linecap="round" stroke-linejoin="round"/>
</svg>
