<svg width="27" height="20" viewBox="0 0 27 20" fill="none" xmlns="http://www.w3.org/2000/svg">
<path fill-rule="evenodd" clip-rule="evenodd" d="M16.2891 0H4.79092C3.52029 0 2.3017 0.506167 1.40323 1.40715C0.504756 2.30813 0 3.53013 0 4.80431V14.4129C0 15.6871 0.504756 16.9091 1.40323 17.8101C2.3017 18.7111 3.52029 19.2172 4.79092 19.2172H16.2891C17.5598 19.2172 18.7783 18.7111 19.6768 17.8101C20.5753 16.9091 21.08 15.6871 21.08 14.4129V4.80431C21.08 3.53013 20.5753 2.30813 19.6768 1.40715C18.7783 0.506167 17.5598 0 16.2891 0ZM1.91637 4.80431C1.91637 4.0398 2.21922 3.3066 2.7583 2.76601C3.29739 2.22542 4.02854 1.92172 4.79092 1.92172H16.2891C17.0515 1.92172 17.7827 2.22542 18.3217 2.76601C18.8608 3.3066 19.1637 4.0398 19.1637 4.80431V14.4129C19.1637 15.1774 18.8608 15.9106 18.3217 16.4512C17.7827 16.9918 17.0515 17.2955 16.2891 17.2955H4.79092C4.02854 17.2955 3.29739 16.9918 2.7583 16.4512C2.21922 15.9106 1.91637 15.1774 1.91637 14.4129V4.80431Z" fill="white"/>
<path fill-rule="evenodd" clip-rule="evenodd" d="M25.4867 2.55601L19.7798 6.27839C19.6472 6.36459 19.5379 6.48234 19.4616 6.62115C19.3854 6.75996 19.3446 6.91553 19.3428 7.07399L19.2911 12.0935C19.2891 12.2554 19.328 12.4151 19.404 12.5579C19.4801 12.7007 19.5909 12.8219 19.7261 12.9103L25.4829 16.6615C25.6275 16.756 25.7948 16.8096 25.9673 16.8166C26.1398 16.8235 26.3109 16.7837 26.4627 16.7012C26.6144 16.6187 26.7411 16.4967 26.8294 16.348C26.9177 16.1992 26.9643 16.0294 26.9642 15.8563V3.36314C26.9646 3.18989 26.9183 3.01976 26.8301 2.87076C26.742 2.72176 26.6153 2.59943 26.4635 2.51672C26.3117 2.43401 26.1404 2.394 25.9678 2.40091C25.7952 2.40783 25.6276 2.46142 25.4829 2.55601M25.0498 14.0864L21.2151 11.5862L21.2554 7.60823L25.0498 5.13497V14.0864Z" fill="white"/>
</svg>
