<svg width="46" height="46" viewBox="0 0 46 46" fill="none" xmlns="http://www.w3.org/2000/svg">
<path d="M15.1571 15.1453C10.512 19.3558 10.2579 26.4295 14.5895 30.9448C18.921 35.46 26.1979 35.7071 30.843 31.4965C35.488 27.286 35.7421 20.2123 31.4105 15.697C28.9467 13.1287 25.53 11.9414 22.1867 12.1698M23.8214 9.58301L20.8924 12.2979L23.8214 15.2094" stroke="white" stroke-width="1.91667" stroke-linecap="round" stroke-linejoin="round"/>
<path d="M22.6167 23.2491C22.6167 22.1439 22.8148 21.2782 23.2109 20.6521C23.6134 20.0259 24.2778 19.7129 25.2042 19.7129C26.1306 19.7129 26.7918 20.0259 27.1879 20.6521C27.5904 21.2782 27.7917 22.1439 27.7917 23.2491C27.7917 24.3608 27.5904 25.2329 27.1879 25.8654C26.7918 26.4979 26.1306 26.8141 25.2042 26.8141C24.2778 26.8141 23.6134 26.4979 23.2109 25.8654C22.8148 25.2329 22.6167 24.3608 22.6167 23.2491ZM26.4692 23.2491C26.4692 22.7764 26.4373 22.3803 26.3734 22.0608C26.3159 21.735 26.1945 21.4698 26.0092 21.2654C25.8303 21.0609 25.562 20.9587 25.2042 20.9587C24.8464 20.9587 24.5749 21.0609 24.3896 21.2654C24.2107 21.4698 24.0893 21.735 24.0254 22.0608C23.9679 22.3803 23.9392 22.7764 23.9392 23.2491C23.9392 23.7347 23.9679 24.1436 24.0254 24.4758C24.0829 24.8016 24.2043 25.0668 24.3896 25.2712C24.5749 25.4693 24.8464 25.5683 25.2042 25.5683C25.562 25.5683 25.8335 25.4693 26.0188 25.2712C26.2041 25.0668 26.3254 24.8016 26.3829 24.4758C26.4404 24.1436 26.4692 23.7347 26.4692 23.2491Z" fill="white"/>
<path d="M19.0295 21.0839V19.8477H21.3391V26.8339H19.9591V21.0839H19.0295Z" fill="white"/>
</svg>
