<svg width="46" height="46" viewBox="0 0 46 46" fill="none" xmlns="http://www.w3.org/2000/svg">
<path d="M30.8431 15.1453C35.4881 19.3558 35.7422 26.4295 31.4107 30.9448C27.0791 35.46 19.8022 35.7071 15.1572 31.4965C10.5122 27.286 10.258 20.2123 14.5896 15.697C17.0534 13.1287 20.4701 11.9414 23.8134 12.1698M22.1787 9.58301L25.1077 12.2979L22.1787 15.2094" stroke="white" stroke-width="1.91667" stroke-linecap="round" stroke-linejoin="round"/>
<path d="M21.7954 23.2491C21.7954 22.1439 21.9935 21.2782 22.3896 20.6521C22.7921 20.0259 23.4565 19.7129 24.3829 19.7129C25.3093 19.7129 25.9705 20.0259 26.3667 20.6521C26.7692 21.2782 26.9704 22.1439 26.9704 23.2491C26.9704 24.3608 26.7692 25.2329 26.3667 25.8654C25.9705 26.4979 25.3093 26.8141 24.3829 26.8141C23.4565 26.8141 22.7921 26.4979 22.3896 25.8654C21.9935 25.2329 21.7954 24.3608 21.7954 23.2491ZM25.6479 23.2491C25.6479 22.7764 25.616 22.3803 25.5521 22.0608C25.4946 21.735 25.3732 21.4698 25.1879 21.2654C25.009 21.0609 24.7407 20.9587 24.3829 20.9587C24.0251 20.9587 23.7536 21.0609 23.5683 21.2654C23.3894 21.4698 23.268 21.735 23.2042 22.0608C23.1467 22.3803 23.1179 22.7764 23.1179 23.2491C23.1179 23.7347 23.1467 24.1436 23.2042 24.4758C23.2617 24.8016 23.383 25.0668 23.5683 25.2712C23.7536 25.4693 24.0251 25.5683 24.3829 25.5683C24.7407 25.5683 25.0122 25.4693 25.1975 25.2712C25.3828 25.0668 25.5042 24.8016 25.5617 24.4758C25.6192 24.1436 25.6479 23.7347 25.6479 23.2491Z" fill="white"/>
<path d="M18.2084 21.0839V19.8477H20.518V26.8339H19.138V21.0839H18.2084Z" fill="white"/>
</svg>
