<svg width="20" height="14" viewBox="0 0 20 14" fill="none" xmlns="http://www.w3.org/2000/svg">
<path d="M3.82828 0.229048C3.96305 0.363982 4.03874 0.546891 4.03874 0.737598C4.03874 0.928305 3.96305 1.11121 3.82828 1.24615C3.0709 2.00351 2.47011 2.90263 2.06022 3.89218C1.65033 4.88172 1.43936 5.94232 1.43936 7.0134C1.43936 8.08448 1.65033 9.14507 2.06022 10.1346C2.47011 11.1242 3.0709 12.0233 3.82828 12.7806C3.95931 12.9164 4.03176 13.0983 4.03003 13.2869C4.0283 13.4756 3.95253 13.6561 3.81904 13.7895C3.68555 13.9228 3.50502 13.9984 3.31633 14C3.12764 14.0015 2.94589 13.9289 2.81022 13.7977C-0.93674 10.0508 -0.93674 3.97601 2.81022 0.229048C2.94516 0.0942813 3.12806 0.0185847 3.31877 0.0185847C3.50948 0.0185847 3.69335 0.0942813 3.82828 0.229048ZM16.3789 0.229048C20.1259 3.97601 20.1259 10.0517 16.3789 13.7987C16.2425 13.9258 16.0621 13.995 15.8756 13.9917C15.6892 13.9885 15.5113 13.9129 15.3795 13.7811C15.2476 13.6492 15.1721 13.4713 15.1688 13.2849C15.1655 13.0985 15.2347 12.918 15.3618 12.7816C16.1193 12.0242 16.7203 11.1251 17.1302 10.1354C17.5402 9.14578 17.7512 8.08507 17.7512 7.01388C17.7512 5.94268 17.5402 4.88198 17.1302 3.89234C16.7203 2.90271 16.1193 2.00352 15.3618 1.24615C15.2911 1.18027 15.2344 1.10082 15.1951 1.01254C15.1557 0.924264 15.1346 0.82897 15.1329 0.732343C15.1312 0.635715 15.149 0.539734 15.1852 0.450126C15.2213 0.360517 15.2752 0.279116 15.3436 0.21078C15.4119 0.142443 15.4933 0.0885711 15.5829 0.0523767C15.6725 0.0161823 15.7685 -0.00159288 15.8651 0.000111996C15.9617 0.00181687 16.057 0.0229668 16.1453 0.0622998C16.2336 0.101633 16.313 0.158343 16.3789 0.229048ZM6.54183 2.9426C6.6766 3.07753 6.75229 3.26044 6.75229 3.45115C6.75229 3.64185 6.6766 3.82476 6.54183 3.9597C6.14073 4.36067 5.82255 4.83673 5.60547 5.36069C5.38838 5.88465 5.27665 6.44625 5.27665 7.0134C5.27665 7.58055 5.38838 8.14214 5.60547 8.66611C5.82255 9.19007 6.14073 9.66613 6.54183 10.0671C6.66895 10.2035 6.73815 10.384 6.73486 10.5704C6.73157 10.7568 6.65605 10.9347 6.5242 11.0666C6.39234 11.1984 6.21446 11.2739 6.02802 11.2772C5.84159 11.2805 5.66115 11.2113 5.52473 11.0842C4.44513 10.0045 3.83863 8.54023 3.83863 7.0134C3.83863 5.48657 4.44513 4.02226 5.52473 2.9426C5.65966 2.80783 5.84257 2.73213 6.03328 2.73213C6.22399 2.73213 6.4069 2.80783 6.54183 2.9426ZM13.6663 2.9426C14.7459 4.02226 15.3524 5.48657 15.3524 7.0134C15.3524 8.54023 14.7459 10.0045 13.6663 11.0842C13.6 11.153 13.5206 11.2078 13.4328 11.2456C13.345 11.2833 13.2506 11.3032 13.1551 11.3041C13.0595 11.305 12.9647 11.2868 12.8763 11.2507C12.7878 11.2145 12.7074 11.1611 12.6398 11.0936C12.5722 11.0261 12.5188 10.9457 12.4825 10.8573C12.4463 10.7689 12.4281 10.6741 12.4288 10.5786C12.4296 10.483 12.4494 10.3886 12.4871 10.3008C12.5248 10.213 12.5796 10.1335 12.6483 10.0671C13.0492 9.66615 13.3673 9.19014 13.5843 8.66627C13.8013 8.1424 13.913 7.58091 13.913 7.01388C13.913 6.44684 13.8013 5.88536 13.5843 5.36148C13.3673 4.83761 13.0492 4.36161 12.6483 3.96066C12.5212 3.82424 12.452 3.6438 12.4552 3.45736C12.4585 3.27092 12.5341 3.09304 12.6659 2.96119C12.7978 2.82934 12.9756 2.75381 13.1621 2.75052C13.3485 2.74723 13.529 2.81644 13.6654 2.94356M9.59505 5.57458C9.97678 5.57458 10.3429 5.72622 10.6128 5.99614C10.8827 6.26606 11.0343 6.63215 11.0343 7.01388C11.0343 7.3956 10.8827 7.76169 10.6128 8.03161C10.3429 8.30153 9.97678 8.45317 9.59505 8.45317C9.21333 8.45317 8.84724 8.30153 8.57732 8.03161C8.3074 7.76169 8.15576 7.3956 8.15576 7.01388C8.15576 6.63215 8.3074 6.26606 8.57732 5.99614C8.84724 5.72622 9.21333 5.57458 9.59505 5.57458Z" fill="#E61859"/>
</svg>
