<svg width="165" height="40" viewBox="0 0 165 40" fill="none" xmlns="http://www.w3.org/2000/svg">
<g clip-path="url(#clip0_44_646)">
<path d="M5.99903 39.7977C2.79962 39.7977 0.197754 37.1966 0.197754 33.9981V5.99243C0.197754 2.79864 2.79962 0.19751 5.99903 0.19751H34.008C37.2074 0.19751 39.8092 2.79864 39.8092 5.99243V33.9981C39.8092 37.1966 37.2074 39.7977 34.008 39.7977H5.99903Z" fill="white"/>
<path d="M16.9331 15.2682V31.7216C16.9331 33.4102 18.307 34.7978 19.9961 34.7978C21.6852 34.7978 23.0637 33.4102 23.0637 31.7216V15.1271C23.0637 9.67552 20.1749 6.79688 14.7076 6.79688H9.76267C8.07357 6.79688 6.69971 8.17035 6.69971 9.86367C6.69971 11.557 8.07357 12.9399 9.76267 12.9399H14.5618C15.7145 12.9399 16.9331 13.7066 16.9331 15.2635" fill="#920783"/>
<path d="M30.2296 6.80151H25.2988C23.6473 6.80151 22.2311 7.06962 21.0596 7.57762C22.711 8.87113 23.732 10.809 24.0473 13.3584C24.4566 13.0856 24.9506 12.9445 25.4352 12.9445H30.2296C31.9376 12.9445 33.3114 11.5616 33.3114 9.86831C33.3114 8.17498 31.9376 6.80151 30.2296 6.80151Z" fill="#F08300"/>
<path d="M87.7766 28.5135C87.7766 30.0328 88.6188 30.9688 90.1668 30.9688C91.7147 30.9688 92.5898 30.0328 92.5898 28.5135V20.1175C92.5898 16.2416 90.1009 14.6565 87.1273 14.6565C84.6713 14.6565 82.8317 15.5925 81.7307 17.4975C81.2131 15.8842 79.9193 14.6565 77.7879 14.6565C75.6565 14.6565 74.2027 15.6255 73.4593 17.1447C73.3605 15.9829 72.49 14.9152 71.1021 14.9152C69.7141 14.9152 68.7119 15.7572 68.7119 17.4034V28.5135C68.7119 30.0328 69.6153 30.9688 71.135 30.9688C72.6547 30.9688 73.5251 30.0328 73.5251 28.5135V21.505C73.5251 19.8258 74.4614 18.7581 75.9153 18.7581C77.3691 18.7581 78.3054 19.854 78.3054 21.2463V28.5135C78.3054 30.0328 79.1429 30.9688 80.6626 30.9688C82.1824 30.9688 82.9869 30.0328 82.9869 28.5135V21.505C82.9869 19.8258 83.9232 18.7581 85.3771 18.7581C86.8309 18.7581 87.7672 19.854 87.7672 21.2463V28.5135H87.7766Z" fill="#FAF9F6"/>
<path d="M95.0273 22.9585C95.0273 27.9632 98.2597 31.2604 103.266 31.2604C108.272 31.2604 111.504 27.9679 111.504 22.9585C111.504 17.9491 108.272 14.6565 103.266 14.6565C98.2597 14.6565 95.0273 17.9491 95.0273 22.9585ZM99.8406 22.9585C99.8406 20.6631 101.069 18.664 103.266 18.664C105.463 18.664 106.691 20.6678 106.691 22.9585C106.691 25.2492 105.43 27.2529 103.266 27.2529C101.102 27.2529 99.8406 25.2492 99.8406 22.9585Z" fill="#FAF9F6"/>
<path d="M113.946 28.5135C113.946 30.0328 114.882 30.9688 116.402 30.9688C117.922 30.9688 118.825 30.0328 118.825 28.5135V21.3733C118.825 19.854 120.02 18.791 121.507 18.791C123.088 18.791 124.189 19.9528 124.189 21.4063V28.5135C124.189 30.0328 125.092 30.9688 126.612 30.9688C128.131 30.9688 129.068 30.0328 129.068 28.5135V20.8277C129.068 17.1447 126.805 14.6565 123.092 14.6565C121.187 14.6565 119.375 15.5925 118.698 17.1118C118.599 15.9829 117.856 14.9152 116.341 14.9152C114.826 14.9152 113.951 15.8842 113.951 17.4034V28.5135H113.946Z" fill="#FAF9F6"/>
<path d="M146.043 29.2897C147.013 28.3866 147.464 27.126 146.655 26.2229C145.879 25.2869 144.557 25.3198 143.649 26.0959C142.613 26.9332 141.583 27.5164 139.903 27.5164C137.739 27.5164 136.059 25.9972 136.059 24.1909H144.815C146.594 24.1909 147.205 23.3819 147.205 21.6086C147.205 18.0244 144.397 14.666 139.452 14.666C134.507 14.666 131.505 18.1232 131.505 22.8692C131.505 27.6152 134.446 31.2653 139.903 31.2653C142.359 31.2653 144.557 30.682 146.043 29.2944M136.059 20.9925C136.059 19.4732 137.64 18.3114 139.452 18.3114C141.263 18.3114 142.844 19.4732 142.844 20.9925H136.059Z" fill="#FAF9F6"/>
<path d="M153.506 16.5006C152.955 15.1459 151.633 14.4968 150.273 15.113C148.918 15.7245 148.434 16.891 149.078 18.3444L154.602 30.4235L154.117 31.6182C153.666 32.78 153.115 33.9747 151.953 33.9747C151.567 33.9747 151.111 33.876 150.758 33.8148C149.756 33.622 148.787 34.1394 148.495 35.2024C148.203 36.2654 148.819 37.2673 149.756 37.6577C150.598 38.0152 151.403 38.0434 152.212 38.0434C155.505 38.0434 156.799 35.621 158.319 32.3284L164.713 18.3444C165.358 16.891 164.873 15.7292 163.518 15.113C162.163 14.4968 160.836 15.1459 160.286 16.5006L156.893 24.5439L153.501 16.5006H153.506Z" fill="#FAF9F6"/>
<path d="M58.0173 28.2596C58.0173 29.8729 59.0853 30.9736 60.6991 30.9736C62.313 30.9736 63.3481 29.8776 63.3481 28.2596V11.6556H68.58C70.1327 11.6556 71.356 10.8466 71.356 9.23321C71.356 7.61985 70.128 6.84375 68.58 6.84375H52.8136C51.2327 6.84375 50.0376 7.65278 50.0376 9.23321C50.0376 10.8136 51.2327 11.6556 52.8136 11.6556H58.0173V28.2548V28.2596Z" fill="#FAF9F6"/>
</g>
<defs>
<clipPath id="clip0_44_646">
<rect width="165" height="40" fill="white"/>
</clipPath>
</defs>
</svg>
