<svg width="23" height="21" viewBox="0 0 23 21" fill="none" xmlns="http://www.w3.org/2000/svg">
<path d="M20.4545 14.175H2.04545V2.025H20.4545M20.4545 0H2.04545C0.910227 0 0 0.901125 0 2.025V14.175C0 14.7121 0.215503 15.2271 0.5991 15.6069C0.982697 15.9867 1.50297 16.2 2.04545 16.2H9.20455V18.225H7.15909V20.25H15.3409V18.225H13.2955V16.2H20.4545C20.997 16.2 21.5173 15.9867 21.9009 15.6069C22.2845 15.2271 22.5 14.7121 22.5 14.175V2.025C22.5 1.48794 22.2845 0.97287 21.9009 0.593109C21.5173 0.213348 20.997 0 20.4545 0Z" fill="#F5AC54"/>
</svg>
