<svg width="46" height="46" viewBox="0 0 46 46" fill="none" xmlns="http://www.w3.org/2000/svg">
<path d="M25.6905 14.9818C25.6905 14.3937 26.1809 13.917 26.7858 13.917H30.0715C30.6764 13.917 31.1667 14.3937 31.1667 14.9818V32.0188C31.1667 32.6069 30.6764 33.0837 30.0715 33.0837H26.7858C26.1809 33.0837 25.6905 32.6069 25.6905 32.0188V14.9818Z" fill="white"/>
<path d="M15.8334 14.9818C15.8334 14.3937 16.3237 13.917 16.9286 13.917H20.2143C20.8192 13.917 21.3096 14.3937 21.3096 14.9818V32.0188C21.3096 32.6069 20.8192 33.0837 20.2143 33.0837H16.9286C16.3237 33.0837 15.8334 32.6069 15.8334 32.0188V14.9818Z" fill="white"/>
</svg>
