<svg width="22" height="22" viewBox="0 0 22 22" fill="none" xmlns="http://www.w3.org/2000/svg">
<path fill-rule="evenodd" clip-rule="evenodd" d="M12.4834 0.614301C12.0899 0.220964 11.5563 0 11 0C10.4437 0 9.91008 0.220964 9.51663 0.614301L7.52341 2.60752H4.70564C4.14918 2.60752 3.61552 2.82857 3.22204 3.22204C2.82857 3.61552 2.60752 4.14918 2.60752 4.70564V7.52341L0.614301 9.51663C0.220964 9.91008 0 10.4437 0 11C0 11.5563 0.220964 12.0899 0.614301 12.4834L2.60752 14.4766V17.2944C2.60752 17.8508 2.82857 18.3845 3.22204 18.778C3.61552 19.1714 4.14918 19.3925 4.70564 19.3925H7.52341L9.51663 21.3857C9.91008 21.779 10.4437 22 11 22C11.5563 22 12.0899 21.779 12.4834 21.3857L14.4766 19.3925H17.2944C17.8508 19.3925 18.3845 19.1714 18.778 18.778C19.1714 18.3845 19.3925 17.8508 19.3925 17.2944V14.4766L21.3857 12.4834C21.779 12.0899 22 11.5563 22 11C22 10.4437 21.779 9.91008 21.3857 9.51663L19.3925 7.52341V4.70564C19.3925 4.14918 19.1714 3.61552 18.778 3.22204C18.3845 2.82857 17.8508 2.60752 17.2944 2.60752H14.4766L12.4834 0.614301ZM11 2.09977L12.9932 4.09299C13.3867 4.48546 13.9198 4.7058 14.4755 4.70564H17.2944V7.52341C17.2943 7.7991 17.3485 8.07209 17.454 8.3268C17.5595 8.5815 17.7141 8.81293 17.9091 9.00783L19.9023 11.001L17.9091 12.9932C17.5156 13.3866 17.2945 13.9202 17.2944 14.4766V17.2944H14.4766C14.2009 17.2943 13.9279 17.3485 13.6732 17.454C13.4185 17.5595 13.1871 17.7141 12.9922 17.9091L10.999 19.9023L9.00679 17.9091C8.6134 17.5156 8.07982 17.2945 7.52341 17.2944H4.70564V14.4766C4.70572 14.2009 4.65146 13.9279 4.54598 13.6732C4.4405 13.4185 4.28585 13.1871 4.09089 12.9922L2.09767 11L4.09089 9.00679C4.48413 8.61366 4.70524 8.08051 4.70564 7.52446V4.70564H7.52341C8.07982 4.70552 8.6134 4.48439 9.00679 4.09089L11 2.09767V2.09977ZM8.90188 11C8.90188 10.4435 9.12293 9.90988 9.5164 9.5164C9.90988 9.12293 10.4435 8.90188 11 8.90188C11.5565 8.90188 12.0901 9.12293 12.4836 9.5164C12.8771 9.90988 13.0981 10.4435 13.0981 11C13.0981 11.5565 12.8771 12.0901 12.4836 12.4836C12.0901 12.8771 11.5565 13.0981 11 13.0981C10.4435 13.0981 9.90988 12.8771 9.5164 12.4836C9.12293 12.0901 8.90188 11.5565 8.90188 11ZM11 6.80376C9.88709 6.80376 8.81976 7.24586 8.03281 8.03281C7.24586 8.81976 6.80376 9.88709 6.80376 11C6.80376 12.1129 7.24586 13.1802 8.03281 13.9672C8.81976 14.7541 9.88709 15.1962 11 15.1962C12.1129 15.1962 13.1802 14.7541 13.9672 13.9672C14.7541 13.1802 15.1962 12.1129 15.1962 11C15.1962 9.88709 14.7541 8.81976 13.9672 8.03281C13.1802 7.24586 12.1129 6.80376 11 6.80376Z" fill="#FAFAFA"/>
</svg>
