<svg width="46" height="46" viewBox="0 0 46 46" fill="none" xmlns="http://www.w3.org/2000/svg">
<path d="M23 11.5C19.95 11.5 17.0249 12.7116 14.8683 14.8683C12.7116 17.0249 11.5 19.95 11.5 23C11.5 26.05 12.7116 28.9751 14.8683 31.1317C17.0249 33.2884 19.95 34.5 23 34.5C26.05 34.5 28.9751 33.2884 31.1317 31.1317C33.2884 28.9751 34.5 26.05 34.5 23C34.5 19.95 33.2884 17.0249 31.1317 14.8683C28.9751 12.7116 26.05 11.5 23 11.5ZM23 32.3438C20.5219 32.3438 18.1453 31.3593 16.393 29.607C14.6407 27.8547 13.6563 25.4781 13.6562 23C13.6562 20.5219 14.6407 18.1453 16.393 16.393C18.1453 14.6407 20.5219 13.6563 23 13.6562C25.4781 13.6562 27.8547 14.6407 29.607 16.393C31.3593 18.1453 32.3438 20.5219 32.3438 23C32.3438 25.4781 31.3593 27.8547 29.607 29.607C27.8547 31.3593 25.4781 32.3438 23 32.3438ZM18.6875 18.6875H27.3125V27.3125H18.6875V18.6875Z" fill="white"/>
</svg>
