<svg width="30" height="30" viewBox="0 0 30 30" fill="none" xmlns="http://www.w3.org/2000/svg">
<path fill-rule="evenodd" clip-rule="evenodd" d="M15 3C12.9011 2.99961 10.8389 3.54973 9.01908 4.59544C7.19927 5.64115 5.68556 7.14588 4.62904 8.95943C3.57251 10.773 3.01012 12.8319 2.99801 14.9307C2.9859 17.0296 3.52449 19.0949 4.56001 20.9205C5.25993 20.0109 6.15966 19.2744 7.18964 18.768C8.21962 18.2616 9.35226 17.9988 10.5 18H19.5C20.6477 17.9988 21.7804 18.2616 22.8104 18.768C23.8403 19.2744 24.7401 20.0109 25.44 20.9205C26.4755 19.0949 27.0141 17.0296 27.002 14.9307C26.9899 12.8319 26.4275 10.773 25.371 8.95943C24.3144 7.14588 22.8007 5.64115 20.9809 4.59544C19.1611 3.54973 17.0989 2.99961 15 3ZM26.9145 24.114C27.1025 23.869 27.2825 23.618 27.4545 23.361C29.1174 20.89 30.0039 17.9784 30 15C30 6.7155 23.2845 0 15 0C6.71551 0 1.53832e-05 6.7155 1.53832e-05 15C-0.0047116 18.2951 1.08007 21.4994 3.08551 24.114L3.07801 24.141L3.61051 24.7605C5.01734 26.4053 6.76409 27.7254 8.73036 28.63C10.6966 29.5345 12.8357 30.0019 15 30C15.324 30 15.646 29.99 15.966 29.97C18.6726 29.7993 21.2815 28.8944 23.5125 27.3525C24.5795 26.6164 25.5465 25.7452 26.3895 24.7605L26.922 24.141L26.9145 24.114ZM15 6C13.8065 6 12.6619 6.4741 11.818 7.31802C10.9741 8.16193 10.5 9.30652 10.5 10.5C10.5 11.6935 10.9741 12.8381 11.818 13.682C12.6619 14.5259 13.8065 15 15 15C16.1935 15 17.3381 14.5259 18.182 13.682C19.0259 12.8381 19.5 11.6935 19.5 10.5C19.5 9.30652 19.0259 8.16193 18.182 7.31802C17.3381 6.4741 16.1935 6 15 6Z" fill="white"/>
</svg>
